<?xml version="1.0" encoding="UTF-8" standalone="no"?>
<svg
   xmlns:dc="http://purl.org/dc/elements/1.1/"
   xmlns:cc="http://creativecommons.org/ns#"
   xmlns:rdf="http://www.w3.org/1999/02/22-rdf-syntax-ns#"
   xmlns:svg="http://www.w3.org/2000/svg"
   xmlns="http://www.w3.org/2000/svg"
   xmlns:xlink="http://www.w3.org/1999/xlink"
   xmlns:sodipodi="http://sodipodi.sourceforge.net/DTD/sodipodi-0.dtd"
   xmlns:inkscape="http://www.inkscape.org/namespaces/inkscape"
   height="1451.34px"
   id="Layer_1"
   version="1.2"
   viewBox="0 0 1451.34 1451.34"
   width="1451.34px"
   xml:space="preserve"
   sodipodi:docname="RedisLogo.svg"
   inkscape:version="0.92.1 r15371"><metadata
     id="metadata37"><rdf:RDF><cc:Work
         rdf:about=""><dc:format>image/svg+xml</dc:format><dc:type
           rdf:resource="http://purl.org/dc/dcmitype/StillImage" /></cc:Work></rdf:RDF></metadata><defs
     id="defs35"><linearGradient
       inkscape:collect="always"
       id="linearGradient15857"><stop
         style="stop-color:#5b5855;stop-opacity:1;"
         offset="0"
         id="stop15853" /><stop
         id="stop15861"
         offset="0.01069053"
         style="stop-color:#5b5855;stop-opacity:0.49803922;" /><stop
         style="stop-color:#5b5855;stop-opacity:0.24705882;"
         offset="0.27316767"
         id="stop15865" /><stop
         id="stop15867"
         offset="0.54223263"
         style="stop-color:#5b5855;stop-opacity:0.12156863;" /><stop
         style="stop-color:#5b5855;stop-opacity:0;"
         offset="1"
         id="stop15855" /></linearGradient><inkscape:perspective
       sodipodi:type="inkscape:persp3d"
       inkscape:vp_x="-570.33871 : 505.33032 : 1"
       inkscape:vp_y="0 : 1737.463 : 0"
       inkscape:vp_z="2534.2128 : 505.33032 : 1"
       inkscape:persp3d-origin="981.93705 : 85.055393 : 1"
       id="perspective3724" /><linearGradient
       inkscape:collect="always"
       xlink:href="#linearGradient15857"
       id="linearGradient15859"
       x1="115.28574"
       y1="353.48917"
       x2="2.8749723"
       y2="354.38739"
       gradientUnits="userSpaceOnUse"
       gradientTransform="matrix(1.197863,0,0,1.197863,115.72052,-197.67208)" /></defs><sodipodi:namedview
     pagecolor="#ffffff"
     bordercolor="#666666"
     borderopacity="1"
     objecttolerance="10"
     gridtolerance="10"
     guidetolerance="10"
     inkscape:pageopacity="0"
     inkscape:pageshadow="2"
     inkscape:window-width="1920"
     inkscape:window-height="1027"
     id="namedview33"
     showgrid="false"
     showguides="true"
     inkscape:guide-bbox="true"
     inkscape:zoom="0.125"
     inkscape:cx="2234.9015"
     inkscape:cy="3146.135"
     inkscape:window-x="-8"
     inkscape:window-y="-8"
     inkscape:window-maximized="1"
     inkscape:current-layer="layer1"
     inkscape:measure-start="225.655,1192.98"
     inkscape:measure-end="235.437,1175.62"
     inkscape:snap-bbox="true"
     inkscape:snap-global="false" /><g
     inkscape:groupmode="layer"
     id="layer1"
     inkscape:label="Base"
     style="display:inline"><g
       id="g15925"
       transform="matrix(7.0400105,0,0,7.0400105,-651.75611,-1224.9785)"><g
         transform="matrix(0.94155972,0,0,0.94155972,11.485198,19.392348)"
         id="g4775"
         style="display:inline"><path
           style="fill:#a42122;stroke-width:0.04446638"
           d="m 224.28806,354.05891 c -3.38548,1.76483 -20.92383,8.97576 -24.65753,10.92202 -3.73402,1.94775 -5.80803,1.92877 -8.75762,0.51865 -2.94959,-1.41016 -21.61328,-8.9489 -24.97529,-10.55641 -1.68052,-0.80266 -2.56389,-1.48081 -2.56389,-2.12105 v -6.41262 c 0,0 24.29768,-5.28954 28.22054,-6.69695 3.92274,-1.40722 5.28327,-1.45801 8.62146,-0.23505 3.33862,1.22296 23.29878,4.82407 26.59792,6.0324 0,0 -0.001,5.72731 -0.001,6.32165 4.2e-4,0.63436 -0.76073,1.33003 -2.48411,2.22736 z"
           id="path10"
           inkscape:connector-curvature="0" /><path
           style="fill:#d82f27;stroke-width:0.04446638"
           d="m 224.28806,347.64482 c -3.38548,1.76411 -20.92383,8.9758 -24.65753,10.92201 -3.73402,1.947 -5.80803,1.92801 -8.75762,0.51785 -2.94994,-1.40931 -21.61323,-8.94957 -24.97525,-10.55564 -3.36205,-1.6068 -3.43249,-2.71322 -0.12984,-4.00608 3.3023,-1.29361 21.86363,-8.57614 25.78686,-9.98358 3.92233,-1.40666 5.28331,-1.45823 8.62144,-0.23492 3.3385,1.22279 20.77198,8.16225 24.07121,9.37062 3.29959,1.20913 3.42627,2.20487 0.0407,3.96974 z"
           id="path12"
           inkscape:connector-curvature="0" /><path
           style="fill:#a42122;stroke-width:0.04446638"
           d="m 224.28806,343.60229 c -3.38548,1.76482 -20.92383,8.97581 -24.65753,10.92281 -3.73402,1.94625 -5.80803,1.9273 -8.75762,0.5171 -2.94998,-1.40937 -21.61328,-8.94885 -24.97529,-10.55565 -1.68052,-0.80338 -2.56389,-1.48006 -2.56389,-2.12033 v -6.41374 c 0,0 24.29768,-5.28929 28.22054,-6.69673 3.92274,-1.40705 5.28327,-1.45824 8.62146,-0.23528 3.33862,1.22279 23.29878,4.82354 26.59792,6.03209 0,0 -0.001,5.72723 -0.001,6.32236 4.2e-4,0.63365 -0.76073,1.32924 -2.48411,2.22737 z"
           id="path14"
           inkscape:connector-curvature="0" /><path
           style="fill:#d82f27;stroke-width:0.04446638"
           d="m 224.28806,337.18761 c -3.38548,1.76466 -20.92383,8.97563 -24.65753,10.92259 -3.73402,1.94697 -5.80803,1.92731 -8.75762,0.51785 -2.94994,-1.40935 -21.61323,-8.94978 -24.97525,-10.55618 -3.36205,-1.60661 -3.43249,-2.71266 -0.12984,-4.00651 3.3023,-1.29281 21.86363,-8.57551 25.78686,-9.98257 3.92233,-1.40704 5.28331,-1.45822 8.62144,-0.23526 3.3385,1.22273 20.77198,8.16149 24.07121,9.37026 3.29959,1.20909 3.42627,2.20513 0.0407,3.96982 z"
           id="path16"
           inkscape:connector-curvature="0" /><path
           style="fill:#a42122;stroke-width:0.04446638"
           d="m 224.28806,332.75725 c -3.38548,1.76465 -20.92383,8.97603 -24.65753,10.92294 -3.73402,1.94697 -5.80803,1.92731 -8.75762,0.51791 -2.94994,-1.40945 -21.61323,-8.9498 -24.97525,-10.55623 -1.68052,-0.80337 -2.56388,-1.48064 -2.56388,-2.12047 v -6.41339 c 0,0 24.29767,-5.28932 28.22054,-6.69636 3.92273,-1.40745 5.28328,-1.45824 8.62145,-0.23532 3.33863,1.22278 23.29878,4.82353 26.59792,6.03208 0,0 -10e-4,5.72728 -10e-4,6.32197 4.3e-4,0.63333 -0.76077,1.32874 -2.48416,2.22687 z"
           id="path18"
           inkscape:connector-curvature="0" /><path
           d="m 224.21285,326.49319 c -3.3855,1.76465 -20.92383,8.97598 -24.65755,10.92281 -3.73402,1.94643 -5.80801,1.92726 -8.7576,0.51772 -2.94959,-1.40985 -21.61329,-8.94926 -24.97529,-10.55587 -3.36206,-1.60666 -3.4325,-2.71307 -0.12985,-4.00651 3.30234,-1.29344 21.86367,-8.5752 25.7869,-9.98261 3.92233,-1.40746 5.28332,-1.45823 8.62145,-0.2351 3.33849,1.22296 20.77198,8.16172 24.07121,9.37045 3.29958,1.2082 3.42626,2.20477 0.0407,3.96911 z"
           id="path20"
           inkscape:connector-curvature="0"
           style="fill:#d82f27;stroke-width:0.04446638" /><polygon
           style="fill:#ffffff"
           points="787.571,309.578 759.89,376.168 715.19,301.863 572.443,289.033 678.956,250.62 647.003,191.659 746.72,230.657 840.743,199.877 815.328,260.85 911.195,296.749 "
           id="polygon22"
           transform="matrix(0.04446638,0,0,0.04446638,162.84927,306.97169)" /><polygon
           style="fill:#ffffff"
           points="752.509,619.808 521.786,524.113 852.398,473.375 "
           id="polygon24"
           transform="matrix(0.04446638,0,0,0.04446638,162.84927,306.97169)" /><ellipse
           style="fill:#ffffff;stroke-width:0.04446638"
           cx="182.08702"
           cy="324.85846"
           rx="7.8573861"
           ry="3.0457246"
           id="ellipse26" /><polygon
           style="fill:#791514"
           points="1057.292,314.947 1252.957,392.274 1057.456,469.517 "
           id="polygon28"
           transform="matrix(0.04446638,0,0,0.04446638,162.84927,306.97169)" /><polygon
           style="fill:#ad2524"
           points="1036.235,477.818 840.825,400.575 1057.292,314.947 1057.456,469.517 "
           id="polygon30"
           transform="matrix(0.04446638,0,0,0.04446638,162.84927,306.97169)" /></g><circle
         r="98.170815"
         cy="277.08008"
         cx="195.65709"
         id="path3772"
         style="opacity:1;fill:#ededed;fill-opacity:0.41960784;stroke:#5b5855;stroke-width:9.81484509;stroke-linecap:butt;stroke-linejoin:miter;stroke-miterlimit:4;stroke-dasharray:none;stroke-opacity:1;paint-order:normal" /><path
         transform="rotate(-90)"
         d="m -294.93056,175.70173 a 28.578119,28.578119 0 0 1 8.37033,20.23664 28.578119,28.578119 0 0 1 -8.41117,20.21969 l -20.16694,-20.24854 z"
         sodipodi:end="0.78741739"
         sodipodi:start="5.4977871"
         sodipodi:ry="28.578119"
         sodipodi:rx="28.578119"
         sodipodi:cy="195.90952"
         sodipodi:cx="-315.13834"
         sodipodi:type="arc"
         id="path4675"
         style="opacity:1;fill:#6e6b6a;fill-opacity:1;stroke:#5b5855;stroke-width:0;stroke-linecap:butt;stroke-linejoin:miter;stroke-miterlimit:4;stroke-dasharray:none;stroke-opacity:1;paint-order:normal" /><path
         style="opacity:1;fill:#5d5a58;fill-opacity:1;stroke:#5b5855;stroke-width:0;stroke-linecap:butt;stroke-linejoin:miter;stroke-miterlimit:4;stroke-dasharray:none;stroke-opacity:1;paint-order:normal"
         id="path4701"
         sodipodi:type="arc"
         sodipodi:cx="-315.1398"
         sodipodi:cy="195.91208"
         sodipodi:rx="16.078119"
         sodipodi:ry="16.078119"
         sodipodi:start="5.4977871"
         sodipodi:end="0.78741739"
         d="m -303.77085,184.54313 a 16.078119,16.078119 0 0 1 4.70916,11.38518 16.078119,16.078119 0 0 1 -4.73214,11.37565 l -11.34597,-11.39188 z"
         transform="rotate(-90)" /><path
         transform="rotate(-90)"
         d="m -305.22435,185.9947 a 14.018984,14.018984 0 0 1 4.10606,9.92708 14.018984,14.018984 0 0 1 -4.1261,9.91876 l -9.89288,-9.93292 z"
         sodipodi:end="0.78741739"
         sodipodi:start="5.4977871"
         sodipodi:ry="14.018984"
         sodipodi:rx="14.018984"
         sodipodi:cy="195.90762"
         sodipodi:cx="-315.13727"
         sodipodi:type="arc"
         id="path4703"
         style="opacity:1;fill:#494744;fill-opacity:1;stroke:#5b5855;stroke-width:0;stroke-linecap:butt;stroke-linejoin:miter;stroke-miterlimit:4;stroke-dasharray:none;stroke-opacity:1;paint-order:normal" /><path
         transform="rotate(-90)"
         d="m -306.64239,187.48398 a 12.025266,11.926702 0 0 1 3.52211,8.4455 12.025266,11.926702 0 0 1 -3.5393,8.43842 l -8.48596,-8.45047 z"
         sodipodi:end="0.78741739"
         sodipodi:start="5.4977871"
         sodipodi:ry="11.926702"
         sodipodi:rx="12.025266"
         sodipodi:cy="195.91743"
         sodipodi:cx="-315.14554"
         sodipodi:type="arc"
         id="path4699"
         style="opacity:1;fill:#373530;fill-opacity:1;stroke:#5b5855;stroke-width:0;stroke-linecap:butt;stroke-linejoin:miter;stroke-miterlimit:4;stroke-dasharray:none;stroke-opacity:1;paint-order:normal" /><path
         style="opacity:1;fill:#25231f;fill-opacity:1;stroke:#5b5855;stroke-width:0;stroke-linecap:butt;stroke-linejoin:miter;stroke-miterlimit:4;stroke-dasharray:none;stroke-opacity:1;paint-order:normal"
         id="path4697"
         sodipodi:type="arc"
         sodipodi:cx="-315.14816"
         sodipodi:cy="195.91473"
         sodipodi:rx="10.083323"
         sodipodi:ry="10.083323"
         sodipodi:start="5.4977871"
         sodipodi:end="0.78741739"
         d="m -308.01818,188.78475 a 10.083323,10.083323 0 0 1 2.95333,7.14016 10.083323,10.083323 0 0 1 -2.96774,7.13419 l -7.11557,-7.14437 z"
         transform="rotate(-90)" /><g
         id="g4713"><g
           id="g4717"><path
             style="opacity:1;fill:#c5c4c2;fill-opacity:1;stroke:#5b5855;stroke-width:0;stroke-linecap:butt;stroke-linejoin:miter;stroke-miterlimit:4;stroke-dasharray:none;stroke-opacity:1;paint-order:normal"
             id="path4709"
             sodipodi:type="arc"
             sodipodi:cx="241.66869"
             sodipodi:cy="271.9827"
             sodipodi:rx="26.122238"
             sodipodi:ry="26.122238"
             sodipodi:start="5.4977871"
             sodipodi:end="2.3561945"
             d="m 260.1399,253.51148 a 26.122238,26.122238 0 0 1 6.76093,25.23215 26.122238,26.122238 0 0 1 -18.47121,18.47121 26.122238,26.122238 0 0 1 -25.23215,-6.76093"
             sodipodi:open="true" /><path
             sodipodi:open="true"
             d="m 254.59454,256.52712 a 27.183962,27.183962 0 0 1 7.03572,26.25769 27.183962,27.183962 0 0 1 -19.22196,19.22197 27.183962,27.183962 0 0 1 -26.25769,-7.03573"
             sodipodi:end="2.3561945"
             sodipodi:start="5.4977871"
             sodipodi:ry="27.183962"
             sodipodi:rx="27.183962"
             sodipodi:cy="275.74908"
             sodipodi:cx="235.37257"
             sodipodi:type="arc"
             id="path4707"
             style="opacity:1;fill:#e1e1e1;fill-opacity:1;stroke:#5b5855;stroke-width:0;stroke-linecap:butt;stroke-linejoin:miter;stroke-miterlimit:4;stroke-dasharray:none;stroke-opacity:1;paint-order:normal" /></g><path
           d="m 246.4315,264.68999 a 15.408208,15.408208 0 0 1 3.98794,14.88318 15.408208,15.408208 0 0 1 -10.89525,10.89525 15.408208,15.408208 0 0 1 -14.88318,-3.98794"
           sodipodi:open="true"
           sodipodi:end="2.3561945"
           sodipodi:start="5.4977871"
           sodipodi:ry="15.408208"
           sodipodi:rx="15.408208"
           sodipodi:cy="275.58524"
           sodipodi:cx="235.53625"
           sodipodi:type="arc"
           id="path4719"
           style="opacity:1;fill:none;fill-opacity:1;stroke:#000000;stroke-width:4.89797306;stroke-linecap:butt;stroke-linejoin:miter;stroke-miterlimit:4;stroke-dasharray:none;stroke-opacity:1;paint-order:normal" /><path
           transform="rotate(-44.77991)"
           d="m -13.891075,361.48651 a 13.007168,13.007168 0 0 1 -13.007168,13.00717 l 0,-13.00717 z"
           sodipodi:end="1.5707963"
           sodipodi:start="0"
           sodipodi:ry="13.007168"
           sodipodi:rx="13.007168"
           sodipodi:cy="361.48651"
           sodipodi:cx="-26.898243"
           sodipodi:type="arc"
           id="path4733"
           style="opacity:1;fill:#ce0000;fill-opacity:1;stroke:none;stroke-width:3.39317369;stroke-linecap:butt;stroke-linejoin:miter;stroke-miterlimit:4;stroke-dasharray:none;stroke-opacity:1;paint-order:normal" /><path
           style="opacity:1;fill:#e1701a;fill-opacity:1;stroke:none;stroke-width:3.39317369;stroke-linecap:butt;stroke-linejoin:miter;stroke-miterlimit:4;stroke-dasharray:none;stroke-opacity:1;paint-order:normal"
           id="path4735"
           sodipodi:type="arc"
           sodipodi:cx="29.719473"
           sodipodi:cy="361.26904"
           sodipodi:rx="13.007168"
           sodipodi:ry="13.007168"
           sodipodi:start="0"
           sodipodi:end="1.5707963"
           d="m 42.726641,361.26904 a 13.007168,13.007168 0 0 1 -13.007168,13.00717 l 0,-13.00717 z"
           transform="matrix(-0.70438537,0.70981776,0.70981776,0.70438537,0,0)" /><path
           transform="matrix(-0.70438537,0.70981776,0.70981776,0.70438537,0,0)"
           d="m 39.291735,361.27563 a 9.5788212,9.5788212 0 0 1 -9.578821,9.57883 l 0,-9.57883 z"
           sodipodi:end="1.5707963"
           sodipodi:start="0"
           sodipodi:ry="9.5788212"
           sodipodi:rx="9.5788212"
           sodipodi:cy="361.27563"
           sodipodi:cx="29.712914"
           sodipodi:type="arc"
           id="path4746"
           style="opacity:1;fill:#d05a15;fill-opacity:1;stroke:none;stroke-width:2.49882221;stroke-linecap:butt;stroke-linejoin:miter;stroke-miterlimit:4;stroke-dasharray:none;stroke-opacity:1;paint-order:normal" /><path
           transform="rotate(-45)"
           sodipodi:open="true"
           d="m -22.144735,361.42249 a 6.0546017,6.0546017 0 0 1 -3.027301,5.24343 6.0546017,6.0546017 0 0 1 -6.054602,0 6.0546017,6.0546017 0 0 1 -3.027301,-5.24343"
           sodipodi:end="3.1415927"
           sodipodi:start="0"
           sodipodi:ry="6.0546017"
           sodipodi:rx="6.0546017"
           sodipodi:cy="361.42249"
           sodipodi:cx="-28.199337"
           sodipodi:type="arc"
           id="path4727"
           style="opacity:1;fill:#000000;fill-opacity:1;stroke:none;stroke-width:2.52147245;stroke-linecap:butt;stroke-linejoin:miter;stroke-miterlimit:4;stroke-dasharray:none;stroke-opacity:1;paint-order:normal" /><g
           transform="matrix(-1,0,0,1,391.85617,-0.03913848)"
           id="g4752"><path
             sodipodi:open="true"
             d="m 260.1399,253.51148 a 26.122238,26.122238 0 0 1 6.76093,25.23215 26.122238,26.122238 0 0 1 -18.47121,18.47121 26.122238,26.122238 0 0 1 -25.23215,-6.76093"
             sodipodi:end="2.3561945"
             sodipodi:start="5.4977871"
             sodipodi:ry="26.122238"
             sodipodi:rx="26.122238"
             sodipodi:cy="271.9827"
             sodipodi:cx="241.66869"
             sodipodi:type="arc"
             id="path4748"
             style="opacity:1;fill:#c5c4c2;fill-opacity:1;stroke:#5b5855;stroke-width:0;stroke-linecap:butt;stroke-linejoin:miter;stroke-miterlimit:4;stroke-dasharray:none;stroke-opacity:1;paint-order:normal" /><path
             style="opacity:1;fill:#e1e1e1;fill-opacity:1;stroke:#5b5855;stroke-width:0;stroke-linecap:butt;stroke-linejoin:miter;stroke-miterlimit:4;stroke-dasharray:none;stroke-opacity:1;paint-order:normal"
             id="path4750"
             sodipodi:type="arc"
             sodipodi:cx="235.37257"
             sodipodi:cy="275.74908"
             sodipodi:rx="27.183962"
             sodipodi:ry="27.183962"
             sodipodi:start="5.4977871"
             sodipodi:end="2.3561945"
             d="m 254.59454,256.52712 a 27.183962,27.183962 0 0 1 7.03572,26.25769 27.183962,27.183962 0 0 1 -19.22196,19.22197 27.183962,27.183962 0 0 1 -26.25769,-7.03573"
             sodipodi:open="true" /></g><path
           transform="scale(-1,1)"
           style="opacity:1;fill:none;fill-opacity:1;stroke:#000000;stroke-width:4.89797306;stroke-linecap:butt;stroke-linejoin:miter;stroke-miterlimit:4;stroke-dasharray:none;stroke-opacity:1;paint-order:normal"
           id="path4754"
           sodipodi:type="arc"
           sodipodi:cx="-156.31993"
           sodipodi:cy="275.54611"
           sodipodi:rx="15.408208"
           sodipodi:ry="15.408208"
           sodipodi:start="5.4977871"
           sodipodi:end="2.3561945"
           sodipodi:open="true"
           d="m -145.42468,264.65086 a 15.408208,15.408208 0 0 1 3.98794,14.88319 15.408208,15.408208 0 0 1 -10.89525,10.89525 15.408208,15.408208 0 0 1 -14.88319,-3.98794" /><path
           style="opacity:1;fill:#ce0000;fill-opacity:1;stroke:none;stroke-width:3.39317369;stroke-linecap:butt;stroke-linejoin:miter;stroke-miterlimit:4;stroke-dasharray:none;stroke-opacity:1;paint-order:normal"
           id="path4756"
           sodipodi:type="arc"
           sodipodi:cx="-305.01712"
           sodipodi:cy="85.440987"
           sodipodi:rx="13.007168"
           sodipodi:ry="13.007168"
           sodipodi:start="0"
           sodipodi:end="1.5707963"
           d="m -292.00995,85.440987 a 13.007168,13.007168 0 0 1 -13.00717,13.007167 l 0,-13.007167 z"
           transform="matrix(-0.70981776,-0.70438537,-0.70438537,0.70981776,0,0)" /><path
           transform="rotate(45.22009)"
           d="m 318.71661,83.095024 a 13.007168,13.007168 0 0 1 -13.00717,13.007168 l 0,-13.007168 z"
           sodipodi:end="1.5707963"
           sodipodi:start="0"
           sodipodi:ry="13.007168"
           sodipodi:rx="13.007168"
           sodipodi:cy="83.095024"
           sodipodi:cx="305.70944"
           sodipodi:type="arc"
           id="path4758"
           style="opacity:1;fill:#e1701a;fill-opacity:1;stroke:none;stroke-width:3.39317369;stroke-linecap:butt;stroke-linejoin:miter;stroke-miterlimit:4;stroke-dasharray:none;stroke-opacity:1;paint-order:normal" /><path
           style="opacity:1;fill:#d05a15;fill-opacity:1;stroke:none;stroke-width:2.49882221;stroke-linecap:butt;stroke-linejoin:miter;stroke-miterlimit:4;stroke-dasharray:none;stroke-opacity:1;paint-order:normal"
           id="path4760"
           sodipodi:type="arc"
           sodipodi:cx="305.70288"
           sodipodi:cy="83.101616"
           sodipodi:rx="9.5788212"
           sodipodi:ry="9.5788212"
           sodipodi:start="0"
           sodipodi:end="1.5707963"
           d="m 315.2817,83.101616 a 9.5788212,9.5788212 0 0 1 -9.57882,9.578821 l 0,-9.578821 z"
           transform="rotate(45.22009)" /><path
           style="opacity:1;fill:#000000;fill-opacity:1;stroke:none;stroke-width:2.52147245;stroke-linecap:butt;stroke-linejoin:miter;stroke-miterlimit:4;stroke-dasharray:none;stroke-opacity:1;paint-order:normal"
           id="path4762"
           sodipodi:type="arc"
           sodipodi:cx="-305.2558"
           sodipodi:cy="84.310654"
           sodipodi:rx="6.0546017"
           sodipodi:ry="6.0546017"
           sodipodi:start="0"
           sodipodi:end="3.1415927"
           d="m -299.2012,84.310654 a 6.0546017,6.0546017 0 0 1 -3.0273,5.243439 6.0546017,6.0546017 0 0 1 -6.0546,-10e-7 6.0546017,6.0546017 0 0 1 -3.0273,-5.243439"
           sodipodi:open="true"
           transform="matrix(-0.70710678,-0.70710678,-0.70710678,0.70710678,0,0)" /></g><path
         sodipodi:open="true"
         d="m 146.23837,230.94772 a 70.937691,70.937691 0 0 1 100.32105,0"
         sodipodi:end="5.4977871"
         sodipodi:start="3.9269908"
         sodipodi:ry="70.937691"
         sodipodi:rx="70.937691"
         sodipodi:cy="281.10825"
         sodipodi:cx="196.3989"
         sodipodi:type="arc"
         id="path4779"
         style="opacity:0.52999998;fill:none;fill-opacity:0.41960784;stroke:url(#linearGradient15859);stroke-width:14.52499962;stroke-linecap:butt;stroke-linejoin:miter;stroke-miterlimit:4;stroke-dasharray:none;stroke-opacity:1;paint-order:normal" /></g></g></svg>