<?xml version="1.0" encoding="UTF-8" standalone="no"?>
<svg xmlns:dc="http://purl.org/dc/elements/1.1/" xmlns:cc="http://creativecommons.org/ns#" xmlns:rdf="http://www.w3.org/1999/02/22-rdf-syntax-ns#" xmlns:svg="http://www.w3.org/2000/svg" xmlns="http://www.w3.org/2000/svg" xmlns:xlink="http://www.w3.org/1999/xlink" xml:space="preserve" width="100" viewBox="0 0 100 100" version="1.2" id="Layer_1" height="100">
    <metadata id="metadata37">
        <rdf:RDF>
            <cc:Work rdf:about="">
                <dc:format>image/svg+xml</dc:format>
                <dc:type rdf:resource="http://purl.org/dc/dcmitype/StillImage" />
                <dc:title></dc:title>
            </cc:Work>
        </rdf:RDF>
    </metadata>
    <defs id="defs35">
        <linearGradient id="linearGradient15857">
            <stop id="stop15853" offset="0" style="stop-color:#999999;stop-opacity:1" />
            <stop style="stop-color:#b3b3b3;stop-opacity:1" offset="0.01069053" id="stop15861" />
            <stop id="stop15865" offset="0.27316767" style="stop-color:#cccccc;stop-opacity:1" />
            <stop style="stop-color:#ececec;stop-opacity:1" offset="0.54223263" id="stop15867" />
            <stop id="stop15855" offset="1" style="stop-color:#ffffff;stop-opacity:1" />
        </linearGradient>
        <linearGradient spreadMethod="pad" gradientTransform="matrix(8.4329681,0,0,8.4329681,162.91757,-2616.592)" gradientUnits="userSpaceOnUse" y2="354.38739" x2="2.8749723" y1="353.48917" x1="115.28574" id="linearGradient15859" xlink:href="#linearGradient15857" />
    </defs>
    <g transform="translate(-2.2371661e-7,-1351.3399)" style="display:inline" id="redis-viewer-icon">
        <g transform="matrix(0.06890158,0,0,0.06890183,-2.1418314e-6,1351.3399)" id="icon">
            <g style="display:inline" id="redis-icon" transform="matrix(6.6285903,0,0,6.6285903,-570.9002,-1088.4562)">
                <path id="path10" d="m 224.28806,354.05891 c -3.38548,1.76483 -20.92383,8.97576 -24.65753,10.92202 -3.73402,1.94775 -5.80803,1.92877 -8.75762,0.51865 -2.94959,-1.41016 -21.61328,-8.9489 -24.97529,-10.55641 -1.68052,-0.80266 -2.56389,-1.48081 -2.56389,-2.12105 v -6.41262 c 0,0 24.29768,-5.28954 28.22054,-6.69695 3.92274,-1.40722 5.28327,-1.45801 8.62146,-0.23505 3.33862,1.22296 23.29878,4.82407 26.59792,6.0324 0,0 -0.001,5.72731 -0.001,6.32165 4.2e-4,0.63436 -0.76073,1.33003 -2.48411,2.22736 z" style="fill:#a42122;stroke-width:0.04446638" />
                <path id="path12" d="m 224.28806,347.64482 c -3.38548,1.76411 -20.92383,8.9758 -24.65753,10.92201 -3.73402,1.947 -5.80803,1.92801 -8.75762,0.51785 -2.94994,-1.40931 -21.61323,-8.94957 -24.97525,-10.55564 -3.36205,-1.6068 -3.43249,-2.71322 -0.12984,-4.00608 3.3023,-1.29361 21.86363,-8.57614 25.78686,-9.98358 3.92233,-1.40666 5.28331,-1.45823 8.62144,-0.23492 3.3385,1.22279 20.77198,8.16225 24.07121,9.37062 3.29959,1.20913 3.42627,2.20487 0.0407,3.96974 z" style="fill:#d82f27;stroke-width:0.04446638" />
                <path id="path14" d="m 224.28806,343.60229 c -3.38548,1.76482 -20.92383,8.97581 -24.65753,10.92281 -3.73402,1.94625 -5.80803,1.9273 -8.75762,0.5171 -2.94998,-1.40937 -21.61328,-8.94885 -24.97529,-10.55565 -1.68052,-0.80338 -2.56389,-1.48006 -2.56389,-2.12033 v -6.41374 c 0,0 24.29768,-5.28929 28.22054,-6.69673 3.92274,-1.40705 5.28327,-1.45824 8.62146,-0.23528 3.33862,1.22279 23.29878,4.82354 26.59792,6.03209 0,0 -0.001,5.72723 -0.001,6.32236 4.2e-4,0.63365 -0.76073,1.32924 -2.48411,2.22737 z" style="fill:#a42122;stroke-width:0.04446638" />
                <path id="path16" d="m 224.28806,337.18761 c -3.38548,1.76466 -20.92383,8.97563 -24.65753,10.92259 -3.73402,1.94697 -5.80803,1.92731 -8.75762,0.51785 -2.94994,-1.40935 -21.61323,-8.94978 -24.97525,-10.55618 -3.36205,-1.60661 -3.43249,-2.71266 -0.12984,-4.00651 3.3023,-1.29281 21.86363,-8.57551 25.78686,-9.98257 3.92233,-1.40704 5.28331,-1.45822 8.62144,-0.23526 3.3385,1.22273 20.77198,8.16149 24.07121,9.37026 3.29959,1.20909 3.42627,2.20513 0.0407,3.96982 z" style="fill:#d82f27;stroke-width:0.04446638" />
                <path id="path18" d="m 224.28806,332.75725 c -3.38548,1.76465 -20.92383,8.97603 -24.65753,10.92294 -3.73402,1.94697 -5.80803,1.92731 -8.75762,0.51791 -2.94994,-1.40945 -21.61323,-8.9498 -24.97525,-10.55623 -1.68052,-0.80337 -2.56388,-1.48064 -2.56388,-2.12047 v -6.41339 c 0,0 24.29767,-5.28932 28.22054,-6.69636 3.92273,-1.40745 5.28328,-1.45824 8.62145,-0.23532 3.33863,1.22278 23.29878,4.82353 26.59792,6.03208 0,0 -10e-4,5.72728 -10e-4,6.32197 4.3e-4,0.63333 -0.76077,1.32874 -2.48416,2.22687 z" style="fill:#a42122;stroke-width:0.04446638" />
                <path style="fill:#d82f27;stroke-width:0.04446638" id="path20" d="m 224.21285,326.49319 c -3.3855,1.76465 -20.92383,8.97598 -24.65755,10.92281 -3.73402,1.94643 -5.80801,1.92726 -8.7576,0.51772 -2.94959,-1.40985 -21.61329,-8.94926 -24.97529,-10.55587 -3.36206,-1.60666 -3.4325,-2.71307 -0.12985,-4.00651 3.30234,-1.29344 21.86367,-8.5752 25.7869,-9.98261 3.92233,-1.40746 5.28332,-1.45823 8.62145,-0.2351 3.33849,1.22296 20.77198,8.16172 24.07121,9.37045 3.29958,1.2082 3.42626,2.20477 0.0407,3.96911 z" />
                <polygon transform="matrix(0.04446638,0,0,0.04446638,162.84927,306.97169)" id="polygon22" points="840.743,199.877 815.328,260.85 911.195,296.749 787.571,309.578 759.89,376.168 715.19,301.863 572.443,289.033 678.956,250.62 647.003,191.659 746.72,230.657 " style="fill:#ffffff" />
                <polygon transform="matrix(0.04446638,0,0,0.04446638,162.84927,306.97169)" id="polygon24" points="852.398,473.375 752.509,619.808 521.786,524.113 " style="fill:#ffffff" />
                <ellipse id="ellipse26" ry="3.0457246" rx="7.8573861" cy="324.85846" cx="182.08702" style="fill:#ffffff;stroke-width:0.04446638" />
                <polygon transform="matrix(0.04446638,0,0,0.04446638,162.84927,306.97169)" id="polygon28" points="1057.456,469.517 1057.292,314.947 1252.957,392.274 " style="fill:#791514" />
                <polygon transform="matrix(0.04446638,0,0,0.04446638,162.84927,306.97169)" id="polygon30" points="1057.456,469.517 1036.235,477.818 840.825,400.575 1057.292,314.947 " style="fill:#ad2524" />
            </g>
            <circle style="opacity:1;fill:#ededed;fill-opacity:0.41960784;stroke:#5b5855;stroke-width:69.09661102;stroke-linecap:butt;stroke-linejoin:miter;stroke-miterlimit:4;stroke-dasharray:none;stroke-opacity:1;paint-order:normal" id="icon-border" cx="725.67188" cy="725.66815" r="691.12354" />
            <g id="beak">
                <path transform="rotate(-90)" d="m -851.3357,585.18591 a 201.19026,201.19026 0 0 1 58.92717,142.46612 201.19026,201.19026 0 0 1 -59.21472,142.34685 L -993.59869,727.44891 Z" id="beak-step-5" style="opacity:1;fill:#6e6b6a;fill-opacity:1;stroke:#5b5855;stroke-width:0;stroke-linecap:butt;stroke-linejoin:miter;stroke-miterlimit:4;stroke-dasharray:none;stroke-opacity:1;paint-order:normal" />
                <path style="opacity:1;fill:#5d5a58;fill-opacity:1;stroke:#5b5855;stroke-width:0;stroke-linecap:butt;stroke-linejoin:miter;stroke-miterlimit:4;stroke-dasharray:none;stroke-opacity:1;paint-order:normal" id="beak-step-4" d="m -913.5715,647.42947 a 113.19013,113.19013 0 0 1 33.15257,80.15179 113.19013,113.19013 0 0 1 -33.31435,80.08468 l -79.87573,-80.19896 z" transform="rotate(-90)" />
                <path transform="rotate(-90)" d="m -923.80414,657.64855 a 98.693794,98.693794 0 0 1 28.9067,69.8867 98.693794,98.693794 0 0 1 -29.04775,69.82818 l -69.646,-69.92782 z" id="beak-step-3" style="opacity:1;fill:#494744;fill-opacity:1;stroke:#5b5855;stroke-width:0;stroke-linecap:butt;stroke-linejoin:miter;stroke-miterlimit:4;stroke-dasharray:none;stroke-opacity:1;paint-order:normal" />
                <path transform="rotate(-90)" d="m -933.78717,668.13311 a 84.657997,83.964104 0 0 1 24.79571,59.45636 84.657997,83.964104 0 0 1 -24.91671,59.40658 l -59.74124,-59.49135 z" id="beak-step-2" style="opacity:1;fill:#373530;fill-opacity:1;stroke:#5b5855;stroke-width:0;stroke-linecap:butt;stroke-linejoin:miter;stroke-miterlimit:4;stroke-dasharray:none;stroke-opacity:1;paint-order:normal" />
                <path style="opacity:1;fill:#25231f;fill-opacity:1;stroke:#5b5855;stroke-width:0;stroke-linecap:butt;stroke-linejoin:miter;stroke-miterlimit:4;stroke-dasharray:none;stroke-opacity:1;paint-order:normal" id="beak-step-1" d="m -943.47268,677.29048 a 70.986694,70.986694 0 0 1 20.79149,50.26684 70.986694,70.986694 0 0 1 -20.89294,50.22476 l -50.09372,-50.29642 z" transform="rotate(-90)" />
            </g>
            <g transform="matrix(7.0400105,0,0,7.0400105,-651.75611,-1224.9785)" id="right-eye">
                <path style="opacity:1;fill:#c5c4c2;fill-opacity:1;stroke:#5b5855;stroke-width:0;stroke-linecap:butt;stroke-linejoin:miter;stroke-miterlimit:4;stroke-dasharray:none;stroke-opacity:1;paint-order:normal" id="right-eye-eyelash" d="m 260.1399,253.51148 a 26.122238,26.122238 0 0 1 6.76093,25.23215 26.122238,26.122238 0 0 1 -18.47121,18.47121 26.122238,26.122238 0 0 1 -25.23215,-6.76093" />
                <path d="m 254.59454,256.52712 a 27.183962,27.183962 0 0 1 7.03572,26.25769 27.183962,27.183962 0 0 1 -19.22196,19.22197 27.183962,27.183962 0 0 1 -26.25769,-7.03573" id="white-of-the-right-eye" style="opacity:1;fill:#e1e1e1;fill-opacity:1;stroke:#5b5855;stroke-width:0;stroke-linecap:butt;stroke-linejoin:miter;stroke-miterlimit:4;stroke-dasharray:none;stroke-opacity:1;paint-order:normal" />
                <path style="opacity:1;fill:none;fill-opacity:1;stroke:#000000;stroke-width:4.89797306;stroke-linecap:butt;stroke-linejoin:miter;stroke-miterlimit:4;stroke-dasharray:none;stroke-opacity:1;paint-order:normal" id="right-eye-cornea-border" d="m 246.4315,264.68999 a 15.408208,15.408208 0 0 1 3.98794,14.88318 15.408208,15.408208 0 0 1 -10.89525,10.89525 15.408208,15.408208 0 0 1 -14.88318,-3.98794" />
                <path style="opacity:1;fill:#ce0000;fill-opacity:1;stroke:none;stroke-width:3.39317369;stroke-linecap:butt;stroke-linejoin:miter;stroke-miterlimit:4;stroke-dasharray:none;stroke-opacity:1;paint-order:normal" id="right-eye-cornea-3" d="m -13.891075,361.48651 a 13.007168,13.007168 0 0 1 -13.007168,13.00717 l 0,-13.00717 z" transform="rotate(-44.77991)" />
                <path transform="matrix(-0.70438537,0.70981776,0.70981776,0.70438537,0,0)" d="m 42.726641,361.26904 a 13.007168,13.007168 0 0 1 -13.007168,13.00717 l 0,-13.00717 z" id="right-eye-cornea-2" style="opacity:1;fill:#e1701a;fill-opacity:1;stroke:none;stroke-width:3.39317369;stroke-linecap:butt;stroke-linejoin:miter;stroke-miterlimit:4;stroke-dasharray:none;stroke-opacity:1;paint-order:normal" />
                <path style="opacity:1;fill:#d05a15;fill-opacity:1;stroke:none;stroke-width:2.49882221;stroke-linecap:butt;stroke-linejoin:miter;stroke-miterlimit:4;stroke-dasharray:none;stroke-opacity:1;paint-order:normal" id="right-eye-cornea-1" d="m 39.291735,361.27563 a 9.5788212,9.5788212 0 0 1 -9.578821,9.57883 l 0,-9.57883 z" transform="matrix(-0.70438537,0.70981776,0.70981776,0.70438537,0,0)" />
                <path style="opacity:1;fill:#000000;fill-opacity:1;stroke:none;stroke-width:2.52147245;stroke-linecap:butt;stroke-linejoin:miter;stroke-miterlimit:4;stroke-dasharray:none;stroke-opacity:1;paint-order:normal" id="apple-of-the-right-eye" d="m -22.144735,361.42249 a 6.0546017,6.0546017 0 0 1 -3.027301,5.24343 6.0546017,6.0546017 0 0 1 -6.054602,0 6.0546017,6.0546017 0 0 1 -3.027301,-5.24343" transform="rotate(-45)" />
            </g>
            <g transform="matrix(7.0400105,0,0,7.0400105,-651.75611,-1224.9785)" id="left-eye">
                <path d="m -131.71627,253.47236 a 26.122238,26.122238 0 0 1 6.76093,25.23215 26.122238,26.122238 0 0 1 -18.47121,18.47121 26.122238,26.122238 0 0 1 -25.23215,-6.76094" id="left-eye-eyelash" style="opacity:1;fill:#c5c4c2;fill-opacity:1;stroke:#5b5855;stroke-width:0;stroke-linecap:butt;stroke-linejoin:miter;stroke-miterlimit:4;stroke-dasharray:none;stroke-opacity:1;paint-order:normal" transform="scale(-1,1)" />
                <path style="opacity:1;fill:#e1e1e1;fill-opacity:1;stroke:#5b5855;stroke-width:0;stroke-linecap:butt;stroke-linejoin:miter;stroke-miterlimit:4;stroke-dasharray:none;stroke-opacity:1;paint-order:normal" id="white-of-the-left-eye" d="m -137.26163,256.488 a 27.183962,27.183962 0 0 1 7.03572,26.25769 27.183962,27.183962 0 0 1 -19.22196,19.22196 27.183962,27.183962 0 0 1 -26.25769,-7.03573" transform="scale(-1,1)" />
                <path d="m -145.42468,264.65086 a 15.408208,15.408208 0 0 1 3.98794,14.88319 15.408208,15.408208 0 0 1 -10.89525,10.89525 15.408208,15.408208 0 0 1 -14.88319,-3.98794" id="left-eye-cornea-border" style="opacity:1;fill:none;fill-opacity:1;stroke:#000000;stroke-width:4.89797306;stroke-linecap:butt;stroke-linejoin:miter;stroke-miterlimit:4;stroke-dasharray:none;stroke-opacity:1;paint-order:normal" transform="scale(-1,1)" />
                <path transform="matrix(-0.70981776,-0.70438537,-0.70438537,0.70981776,0,0)" d="m -292.00995,85.440987 a 13.007168,13.007168 0 0 1 -13.00717,13.007167 l 0,-13.007167 z" id="left-eye-cornea-3" style="opacity:1;fill:#ce0000;fill-opacity:1;stroke:none;stroke-width:3.39317369;stroke-linecap:butt;stroke-linejoin:miter;stroke-miterlimit:4;stroke-dasharray:none;stroke-opacity:1;paint-order:normal" />
                <path style="opacity:1;fill:#e1701a;fill-opacity:1;stroke:none;stroke-width:3.39317369;stroke-linecap:butt;stroke-linejoin:miter;stroke-miterlimit:4;stroke-dasharray:none;stroke-opacity:1;paint-order:normal" id="left-eye-cornea-2" d="m 318.71661,83.095024 a 13.007168,13.007168 0 0 1 -13.00717,13.007168 l 0,-13.007168 z" transform="rotate(45.22009)" />
                <path transform="rotate(45.22009)" d="m 315.2817,83.101616 a 9.5788212,9.5788212 0 0 1 -9.57882,9.578821 l 0,-9.578821 z" id="left-eye-cornea-1" style="opacity:1;fill:#d05a15;fill-opacity:1;stroke:none;stroke-width:2.49882221;stroke-linecap:butt;stroke-linejoin:miter;stroke-miterlimit:4;stroke-dasharray:none;stroke-opacity:1;paint-order:normal" />
                <path transform="matrix(-0.70710678,-0.70710678,-0.70710678,0.70710678,0,0)" d="m -299.2012,84.310654 a 6.0546017,6.0546017 0 0 1 -3.0273,5.243439 6.0546017,6.0546017 0 0 1 -6.0546,-10e-7 6.0546017,6.0546017 0 0 1 -3.0273,-5.243439" id="apple-of-the-left-eye" style="opacity:1;fill:#000000;fill-opacity:1;stroke:none;stroke-width:2.52147245;stroke-linecap:butt;stroke-linejoin:miter;stroke-miterlimit:4;stroke-dasharray:none;stroke-opacity:1;paint-order:normal" />
            </g>
            <path style="opacity:0.52999998;fill:none;fill-opacity:0.41960784;stroke:url(#linearGradient15859);stroke-width:102.25614929;stroke-linecap:butt;stroke-linejoin:miter;stroke-miterlimit:4;stroke-dasharray:none;stroke-opacity:1;paint-order:normal" id="eyebrow" d="m 377.76355,400.89588 a 499.4021,499.4021 0 0 1 706.26125,-2e-5" />
        </g>
    </g>
</svg>